<svg width="22" height="22" viewBox="0 0 22 22" fill="none" xmlns="http://www.w3.org/2000/svg">
    <path d="M15.0875 14.0001C16.4412 12.3667 17.1137 10.2747 16.9653 8.1585C16.8169 6.0423 15.859 4.06458 14.2906 2.63615C12.7222 1.20771 10.6638 0.438343 8.54297 0.487844C6.42215 0.537345 4.4019 1.40191 2.90184 2.90197C1.40179 4.40202 0.537223 6.42227 0.487722 8.54309C0.438221 10.6639 1.20759 12.7223 2.63603 14.2907C4.06446 15.8591 6.04217 16.817 8.15838 16.9654C10.2746 17.1138 12.3666 16.4413 14 15.0876L20.195 21.2826L21.26 20.2176L15.0875 14.0001ZM8.74996 15.5001C7.41494 15.5001 6.10989 15.1042 4.99986 14.3625C3.88983 13.6208 3.02467 12.5666 2.51377 11.3332C2.00288 10.0998 1.86921 8.74259 2.12966 7.43322C2.39011 6.12385 3.03298 4.92112 3.97699 3.97711C4.92099 3.03311 6.12373 2.39023 7.4331 2.12978C8.74247 1.86933 10.0997 2.003 11.3331 2.5139C12.5665 3.02479 13.6207 3.88995 14.3624 4.99998C15.1041 6.11002 15.5 7.41506 15.5 8.75008C15.5 10.5403 14.7888 12.2572 13.5229 13.5231C12.2571 14.7889 10.5402 15.5001 8.74996 15.5001Z" fill="#E3E5EC"/>
</svg>
